# This file uses centimeters as units for non-parametric coordinates.

mtllib Rock_04.mtl
g default
v 2.919218 0.000000 -2.954886
v -0.632387 0.000000 -3.848143
v -3.337181 0.000000 -2.150655
v -3.603313 0.100508 1.083172
v -2.796911 0.284592 4.326736
v 0.128482 0.323289 4.717350
v 3.676632 0.262093 3.151292
v 3.654347 0.136537 0.203081
v 2.757165 0.945608 -2.987576
v -0.544171 0.945608 -4.048292
v -3.067377 0.947810 -2.379218
v -3.445065 1.242896 1.199668
v -2.753882 1.530812 4.454313
v -0.131677 1.826334 4.676963
v 3.233675 2.113897 3.007942
v 3.334970 1.968431 0.064354
v 1.971785 3.180053 -2.080909
v -0.219844 2.862413 -3.607270
v -1.838936 3.433371 -2.035767
v -2.603512 3.368521 0.647697
v -2.118921 3.491138 3.405921
v -0.272635 4.014365 3.850014
v 2.122755 5.256426 2.400635
v 2.376129 4.452564 -0.261092
v 0.811262 5.444682 -1.686445
v -0.021459 4.534195 -2.319144
v -0.914291 5.560113 -1.304424
v -1.289126 6.114499 -0.185176
v -1.057795 7.088352 1.403351
v -0.220048 7.609695 1.885770
v 0.796303 8.257841 1.043605
v 1.112877 6.886023 -0.539159
v -0.040688 7.230328 -0.496606
vt 0.000000 0.500000
vt 0.125000 0.500000
vt 0.250000 0.500000
vt 0.375000 0.500000
vt 0.500000 0.500000
vt 0.625000 0.500000
vt 0.750000 0.500000
vt 0.875000 0.500000
vt 1.000000 0.500000
vt 0.000000 0.625000
vt 0.125000 0.625000
vt 0.250000 0.625000
vt 0.375000 0.625000
vt 0.500000 0.625000
vt 0.625000 0.625000
vt 0.750000 0.625000
vt 0.875000 0.625000
vt 1.000000 0.625000
vt 0.000000 0.750000
vt 0.125000 0.750000
vt 0.250000 0.750000
vt 0.375000 0.750000
vt 0.500000 0.750000
vt 0.625000 0.750000
vt 0.750000 0.750000
vt 0.875000 0.750000
vt 1.000000 0.750000
vt 0.000000 0.875000
vt 0.125000 0.875000
vt 0.250000 0.875000
vt 0.375000 0.875000
vt 0.500000 0.875000
vt 0.625000 0.875000
vt 0.750000 0.875000
vt 0.875000 0.875000
vt 1.000000 0.875000
vt 0.062500 1.000000
vt 0.187500 1.000000
vt 0.312500 1.000000
vt 0.437500 1.000000
vt 0.562500 1.000000
vt 0.687500 1.000000
vt 0.812500 1.000000
vt 0.937500 1.000000
vn 0.007015 -0.999186 0.039726
vn 0.007015 -0.999186 0.039726
vn 0.007015 -0.999186 0.039726
vn 0.007015 -0.999186 0.039726
vn 0.007015 -0.999186 0.039726
vn 0.007015 -0.999186 0.039726
vn 0.007015 -0.999186 0.039726
vn 0.007015 -0.999186 0.039726
vn 0.272624 -0.107073 -0.956144
vn 0.272624 -0.107073 -0.956144
vn 0.272624 -0.107073 -0.956144
vn 0.272624 -0.107073 -0.956144
vn -0.539349 -0.087647 -0.837509
vn -0.539349 -0.087647 -0.837509
vn -0.539349 -0.087647 -0.837509
vn -0.539349 -0.087647 -0.837509
vn -0.975486 0.194222 -0.103464
vn -0.975486 0.194222 -0.103464
vn -0.975486 0.194222 -0.103464
vn -0.975486 0.194222 -0.103464
vn -0.973665 0.059560 0.220066
vn -0.973665 0.059560 0.220066
vn -0.973665 0.059560 0.220066
vn -0.973665 0.059560 0.220066
vn -0.107409 -0.039988 0.993411
vn -0.107409 -0.039988 0.993411
vn -0.107409 -0.039988 0.993411
vn -0.107409 -0.039988 0.993411
vn 0.416196 0.136462 0.898977
vn 0.416196 0.136462 0.898977
vn 0.416196 0.136462 0.898977
vn 0.416196 0.136462 0.898977
vn 0.979186 0.202931 0.003796
vn 0.979186 0.202931 0.003796
vn 0.979186 0.202931 0.003796
vn 0.979186 0.202931 0.003796
vn 0.960831 0.152251 -0.231569
vn 0.960831 0.152251 -0.231569
vn 0.960831 0.152251 -0.231569
vn 0.960831 0.152251 -0.231569
vn 0.387839 0.323299 -0.863167
vn 0.387839 0.323299 -0.863168
vn 0.387839 0.323299 -0.863168
vn 0.387839 0.323299 -0.863168
vn -0.552540 0.331181 -0.764865
vn -0.552540 0.331181 -0.764865
vn -0.552540 0.331181 -0.764865
vn -0.552540 0.331181 -0.764865
vn -0.900584 0.396192 -0.178834
vn -0.900584 0.396192 -0.178834
vn -0.900584 0.396192 -0.178834
vn -0.900584 0.396192 -0.178834
vn -0.909227 0.387827 0.151314
vn -0.909227 0.387827 0.151314
vn -0.909227 0.387827 0.151314
vn -0.909227 0.387827 0.151314
vn -0.209103 0.423392 0.881485
vn -0.209103 0.423392 0.881485
vn -0.209103 0.423392 0.881485
vn -0.209103 0.423392 0.881485
vn 0.382842 0.322806 0.865580
vn 0.382842 0.322806 0.865580
vn 0.382842 0.322806 0.865580
vn 0.382842 0.322806 0.865580
vn 0.938469 0.345362 0.000889
vn 0.938469 0.345362 0.000889
vn 0.938469 0.345362 0.000889
vn 0.938469 0.345362 0.000889
vn 0.865642 0.362519 -0.345316
vn 0.865642 0.362519 -0.345316
vn 0.865642 0.362519 -0.345316
vn 0.865642 0.362519 -0.345316
vn 0.395900 0.441047 -0.805444
vn 0.395900 0.441047 -0.805444
vn 0.395900 0.441047 -0.805444
vn 0.395900 0.441047 -0.805444
vn -0.429865 0.519640 -0.738370
vn -0.429865 0.519640 -0.738370
vn -0.429865 0.519640 -0.738370
vn -0.429865 0.519640 -0.738370
vn -0.866334 0.391624 -0.309995
vn -0.866334 0.391624 -0.309995
vn -0.866334 0.391624 -0.309995
vn -0.866334 0.391624 -0.309995
vn -0.926021 0.372920 0.058449
vn -0.926021 0.372920 0.058449
vn -0.926021 0.372920 0.058449
vn -0.926021 0.372920 0.058449
vn -0.447865 0.483973 0.751789
vn -0.447865 0.483973 0.751789
vn -0.447865 0.483973 0.751789
vn -0.447865 0.483973 0.751789
vn 0.294314 0.474509 0.829591
vn 0.294314 0.474509 0.829591
vn 0.294314 0.474509 0.829590
vn 0.294314 0.474509 0.829591
vn 0.909229 0.407183 -0.086627
vn 0.909229 0.407183 -0.086627
vn 0.909229 0.407183 -0.086627
vn 0.909229 0.407183 -0.086627
vn 0.742781 0.396571 -0.539451
vn 0.742781 0.396571 -0.539451
vn 0.742781 0.396571 -0.539451
vn 0.742781 0.396571 -0.539451
vn 0.017001 0.560034 -0.828295
vn 0.017001 0.560034 -0.828295
vn 0.017001 0.560034 -0.828295
vn -0.288125 0.534871 -0.794290
vn -0.288125 0.534871 -0.794290
vn -0.288125 0.534871 -0.794290
vn -0.642609 0.578885 -0.501942
vn -0.642609 0.578885 -0.501942
vn -0.642609 0.578885 -0.501942
vn -0.675260 0.668561 -0.311529
vn -0.675260 0.668561 -0.311529
vn -0.675260 0.668561 -0.311529
vn -0.446447 0.877848 -0.173399
vn -0.446447 0.877848 -0.173399
vn -0.446447 0.877848 -0.173400
vn -0.625422 0.761896 -0.168409
vn -0.625422 0.761896 -0.168409
vn -0.625422 0.761896 -0.168409
vn 0.203939 0.759608 -0.617579
vn 0.203939 0.759608 -0.617579
vn 0.203939 0.759608 -0.617579
vn 0.148964 0.596560 -0.788623
vn 0.148964 0.596560 -0.788623
vn 0.148964 0.596560 -0.788623
s off
g pSphere1
usemtl initialShadingGroup
f 7/7/1 6/6/2 5/5/3 4/4/4 3/3/5 2/2/6 1/9/7 8/8/8
f 1/1/9 2/2/10 10/11/11 9/10/12
f 2/2/13 3/3/14 11/12/15 10/11/16
f 3/3/17 4/4/18 12/13/19 11/12/20
f 4/4/21 5/5/22 13/14/23 12/13/24
f 5/5/25 6/6/26 14/15/27 13/14/28
f 6/6/29 7/7/30 15/16/31 14/15/32
f 7/7/33 8/8/34 16/17/35 15/16/36
f 8/8/37 1/9/38 9/18/39 16/17/40
f 9/10/41 10/11/42 18/20/43 17/19/44
f 10/11/45 11/12/46 19/21/47 18/20/48
f 11/12/49 12/13/50 20/22/51 19/21/52
f 12/13/53 13/14/54 21/23/55 20/22/56
f 13/14/57 14/15/58 22/24/59 21/23/60
f 14/15/61 15/16/62 23/25/63 22/24/64
f 15/16/65 16/17/66 24/26/67 23/25/68
f 16/17/69 9/18/70 17/27/71 24/26/72
f 17/19/73 18/20/74 26/29/75 25/28/76
f 18/20/77 19/21/78 27/30/79 26/29/80
f 19/21/81 20/22/82 28/31/83 27/30/84
f 20/22/85 21/23/86 29/32/87 28/31/88
f 21/23/89 22/24/90 30/33/91 29/32/92
f 22/24/93 23/25/94 31/34/95 30/33/96
f 23/25/97 24/26/98 32/35/99 31/34/100
f 24/26/101 17/27/102 25/36/103 32/35/104
f 25/28/105 26/29/106 33/37/107
f 26/29/108 27/30/109 33/38/110
f 27/30/111 28/31/112 33/39/113
f 28/31/114 29/32/115 33/40/116
f 29/32/117 30/33/118 33/41/119
f 30/33/120 31/34/121 33/42/122
f 31/34/123 32/35/124 33/43/125
f 32/35/126 25/36/127 33/44/128
